M48
;DRILL file {KiCad (2016-06-29 BZR 6959, Git 30386bd)-product} date Sat Jul  2 22:02:47 2016
;FORMAT={-:-/ absolute / inch / decimal}
FMAT,2
INCH,TZ
T1C0.016
T2C0.028
T3C0.039
T4C0.114
%
G90
G05
M72
T1
X0.0492Y-1.4665
X0.0689Y-0.2165
X0.0689Y-0.2756
X0.0689Y-0.7087
X0.0689Y-0.7677
X0.0689Y-1.0039
X0.0689Y-1.063
X0.0689Y-1.1614
X0.0689Y-1.437
X0.0689Y-1.4961
X0.0886Y-0.2461
X0.0886Y-0.7382
X0.0886Y-1.0335
X0.0886Y-1.4075
X0.0886Y-1.5256
X0.1083Y-0.2165
X0.1083Y-0.2756
X0.1083Y-0.374
X0.1083Y-0.4921
X0.1083Y-0.6102
X0.1083Y-0.7087
X0.1083Y-0.7677
X0.1083Y-1.0039
X0.1083Y-1.063
X0.1083Y-1.1614
X0.1083Y-1.2795
X0.1083Y-1.4961
X0.1083Y-1.5551
X0.128Y-0.2461
X0.128Y-0.7382
X0.128Y-1.0335
X0.128Y-1.4075
X0.128Y-1.5256
X0.1476Y-0.2165
X0.1476Y-0.2756
X0.1476Y-0.374
X0.1476Y-0.4921
X0.1476Y-0.6102
X0.1476Y-0.7087
X0.1476Y-0.7677
X0.1476Y-1.0039
X0.1476Y-1.063
X0.1476Y-1.1614
X0.1476Y-1.2795
X0.1476Y-1.4961
X0.1673Y-0.2461
X0.1673Y-0.7382
X0.1673Y-1.0335
X0.1673Y-1.4075
X0.1673Y-1.5256
X0.187Y-0.2165
X0.187Y-0.2756
X0.187Y-0.374
X0.187Y-0.4921
X0.187Y-0.6102
X0.187Y-0.7087
X0.187Y-0.7677
X0.187Y-1.0039
X0.187Y-1.063
X0.187Y-1.1614
X0.187Y-1.2795
X0.187Y-1.4961
X0.2067Y-0.2461
X0.2067Y-0.7382
X0.2067Y-1.0335
X0.2264Y-0.2165
X0.2264Y-0.2756
X0.2264Y-0.7087
X0.2264Y-0.7677
X0.2264Y-1.0039
X0.2264Y-1.063
X0.2264Y-1.1614
X0.4035Y-1.5748
X0.4035Y-1.6339
X0.4035Y-1.6929
X0.4232Y-1.5453
X0.4232Y-1.6043
X0.4232Y-1.6634
X0.4429Y-1.5748
X0.4429Y-1.6339
X0.4429Y-1.6929
X0.4626Y-1.5453
X0.4626Y-1.6043
X0.4626Y-1.6634
X0.4823Y-1.5748
X0.4823Y-1.6339
X0.4823Y-1.6929
X0.502Y-1.5453
X0.502Y-1.6043
X0.502Y-1.6634
X0.6988Y-1.0728
X0.6988Y-1.1319
X0.7087Y-0.2461
X0.7283Y-0.2185
X0.7283Y-0.2756
X0.7283Y-0.8563
X0.7283Y-0.8957
X0.7283Y-0.935
X0.7283Y-0.9744
X0.7283Y-1.0138
X0.748Y-0.2461
X0.748Y-0.3051
X0.7579Y-0.876
X0.7579Y-0.9154
X0.7579Y-0.9547
X0.7579Y-0.9941
X0.7579Y-1.0335
X0.7677Y-0.2185
X0.7677Y-0.2756
X0.7677Y-0.3346
X0.7874Y-0.2461
X0.7874Y-0.3051
X0.7874Y-0.8563
X0.7874Y-0.8957
X0.7874Y-0.935
X0.7874Y-0.9744
X0.7874Y-1.0138
X0.8071Y-0.2756
X0.8071Y-0.3346
X0.8268Y-0.2461
X0.8268Y-0.3051
X0.8465Y-0.2756
X0.8465Y-0.3346
X0.8661Y-0.2461
X0.8661Y-0.3051
X0.9154Y-1.5748
X0.9154Y-1.6339
X0.9154Y-1.6929
X0.9272Y-0.3091
X0.9272Y-0.3406
X0.9272Y-1.0965
X0.9272Y-1.128
X0.935Y-0.8169
X0.935Y-1.6043
X0.935Y-1.6634
X0.9547Y-1.5748
X0.9547Y-1.6339
X0.9547Y-1.6929
X0.9646Y-0.7972
X0.9646Y-0.8366
X0.9646Y-0.876
X0.9646Y-0.9154
X0.9646Y-0.9547
X0.9646Y-0.9941
X0.9744Y-0.3091
X0.9744Y-0.3406
X0.9744Y-1.0965
X0.9744Y-1.128
X0.9744Y-1.6043
X0.9744Y-1.6634
X0.9941Y-0.8169
X0.9941Y-0.8563
X0.9941Y-0.8957
X0.9941Y-0.935
X0.9941Y-1.5748
X0.9941Y-1.6339
X0.9941Y-1.6929
X1.0138Y-1.6043
X1.0138Y-1.6634
X1.0217Y-0.3091
X1.0217Y-0.3406
X1.0217Y-1.0965
X1.0217Y-1.128
X1.0236Y-0.7972
X1.0236Y-0.8366
X1.0335Y-0.2067
X1.0335Y-0.9941
X1.0733Y-0.2072
X1.0733Y-0.9946
X1.0827Y-0.8563
X1.0925Y-1.5453
X1.1122Y-0.374
X1.1122Y-1.5748
X1.1125Y-0.2028
X1.1319Y-1.5453
X1.1516Y-1.5748
X1.1713Y-0.4823
X1.1713Y-0.5217
X1.1713Y-0.561
X1.1713Y-0.6004
X1.1713Y-0.6398
X1.1713Y-0.6791
X1.1713Y-0.7185
X1.1713Y-1.2697
X1.1713Y-1.3091
X1.1713Y-1.3484
X1.1713Y-1.3878
X1.1713Y-1.4272
X1.1713Y-1.4665
X1.1713Y-1.5059
X1.1713Y-1.5453
X1.1811Y-0.374
X1.1811Y-1.1614
X1.2008Y-0.502
X1.2008Y-0.5413
X1.2008Y-0.5807
X1.2008Y-0.6201
X1.2008Y-0.6594
X1.2008Y-0.6988
X1.2008Y-1.2894
X1.2008Y-1.3287
X1.2008Y-1.3681
X1.2008Y-1.4075
X1.2008Y-1.4469
X1.2008Y-1.4862
X1.2008Y-1.5256
X1.2008Y-1.565
X1.2303Y-0.4823
X1.2303Y-0.5217
X1.2303Y-0.561
X1.2303Y-0.6004
X1.2303Y-0.6398
X1.2303Y-0.6791
X1.2303Y-0.7185
X1.25Y-1.1614
X1.3287Y-0.2165
X1.3287Y-0.2756
X1.3287Y-0.7087
X1.3287Y-0.7677
X1.3287Y-1.0039
X1.3287Y-1.063
X1.3484Y-0.2461
X1.3484Y-0.7382
X1.3484Y-1.0335
X1.3484Y-1.6339
X1.3484Y-1.6929
X1.3681Y-0.2165
X1.3681Y-0.2756
X1.3681Y-0.374
X1.3681Y-0.6102
X1.3681Y-0.7087
X1.3681Y-0.7677
X1.3681Y-1.0039
X1.3681Y-1.063
X1.3681Y-1.1614
X1.3681Y-1.3976
X1.3681Y-1.4961
X1.3681Y-1.5551
X1.3681Y-1.6634
X1.3878Y-0.2461
X1.3878Y-0.7382
X1.3878Y-1.0335
X1.3878Y-1.5256
X1.3878Y-1.6339
X1.3878Y-1.6929
X1.4075Y-0.2165
X1.4075Y-0.2756
X1.4075Y-0.374
X1.4075Y-0.4921
X1.4075Y-0.6102
X1.4075Y-0.7087
X1.4075Y-0.7677
X1.4075Y-1.0039
X1.4075Y-1.063
X1.4075Y-1.1614
X1.4075Y-1.2795
X1.4075Y-1.3976
X1.4075Y-1.4961
X1.4075Y-1.5551
X1.4075Y-1.6634
X1.4272Y-0.2461
X1.4272Y-0.7382
X1.4272Y-1.0335
X1.4272Y-1.5256
X1.4469Y-0.2165
X1.4469Y-0.2756
X1.4469Y-0.374
X1.4469Y-0.6102
X1.4469Y-0.7087
X1.4469Y-0.7677
X1.4469Y-1.0039
X1.4469Y-1.063
X1.4469Y-1.1614
X1.4469Y-1.3976
X1.4469Y-1.4961
X1.4469Y-1.5551
X1.4665Y-0.2461
X1.4665Y-0.7382
X1.4665Y-1.0335
X1.4665Y-1.5256
X1.4862Y-0.2165
X1.4862Y-0.2756
X1.4862Y-0.7087
X1.4862Y-0.7677
X1.4862Y-1.0039
X1.4862Y-1.063
X1.5551Y-0.2657
X1.5551Y-0.3248
X1.5748Y-0.2953
X1.5748Y-0.3543
X1.5945Y-0.2657
X1.5945Y-0.3248
X1.6142Y-0.2953
X1.6142Y-0.3543
X1.6339Y-0.2657
X1.6339Y-0.3248
X1.6535Y-0.2953
X1.6535Y-0.3543
X1.6732Y-0.2657
X1.6732Y-0.3248
X1.6929Y-0.2953
X1.6929Y-0.3543
X1.7126Y-0.2657
X1.7126Y-0.3248
X1.7421Y-1.6339
X1.7421Y-1.6929
X1.7618Y-1.6043
X1.7618Y-1.6634
X1.7815Y-1.5748
X1.7815Y-1.6339
X1.7815Y-1.6929
X1.8012Y-1.6043
X1.8012Y-1.6634
X1.8209Y-1.5748
X1.8209Y-1.6339
X1.8209Y-1.6929
X1.8406Y-1.5157
X1.8406Y-1.6043
X1.8406Y-1.6634
X1.8799Y-1.5157
X1.8996Y-1.4862
X1.9183Y-1.6142
X1.9193Y-1.4567
X1.9212Y-1.557
X1.9291Y-0.9646
X1.9291Y-1.0236
X1.939Y-1.4272
X1.939Y-1.4862
X1.939Y-1.5846
X1.939Y-1.6437
X1.9587Y-1.3976
X1.9587Y-1.4567
X1.9587Y-1.5551
X1.9587Y-1.6142
X1.9684Y-1.693
X1.9685Y-0.2461
X1.9685Y-0.3051
X1.9783Y-1.4272
X1.9783Y-1.4862
X1.9783Y-1.5846
X1.9783Y-1.6437
X1.9882Y-0.2185
X1.9882Y-0.2756
X1.9882Y-0.8563
X1.9882Y-0.8957
X1.9882Y-0.935
X1.9882Y-0.9744
X1.9882Y-1.0138
X1.998Y-1.3976
X1.998Y-1.4567
X1.998Y-1.5551
X1.998Y-1.6142
X2.0079Y-0.2461
X2.0079Y-0.3051
X2.0177Y-0.876
X2.0177Y-0.9154
X2.0177Y-0.9547
X2.0177Y-0.9941
X2.0177Y-1.4272
X2.0177Y-1.4862
X2.0276Y-0.2185
X2.0276Y-0.2756
X2.0374Y-1.3976
X2.0374Y-1.4567
X2.0472Y-0.2461
X2.0472Y-0.3051
X2.0472Y-0.8563
X2.0472Y-0.8957
X2.0472Y-0.935
X2.0472Y-0.9744
X2.0472Y-1.0138
X2.0571Y-1.4272
X2.0571Y-1.4862
X2.0669Y-0.2756
X2.0768Y-1.3976
X2.0768Y-1.4567
X2.0866Y-0.2461
X2.0866Y-0.3051
X2.1063Y-0.2756
X2.126Y-0.2461
X2.185Y-0.8268
X2.187Y-0.3091
X2.187Y-0.3406
X2.187Y-1.0965
X2.187Y-1.128
X2.2146Y-0.8071
X2.2146Y-0.8465
X2.2146Y-0.8858
X2.2146Y-0.9252
X2.2146Y-0.9646
X2.2146Y-1.0039
X2.2343Y-0.3091
X2.2343Y-0.3406
X2.2343Y-1.0965
X2.2343Y-1.128
X2.2441Y-0.8268
X2.2441Y-0.8661
X2.2441Y-0.9055
X2.2441Y-0.9449
X2.2736Y-0.8071
X2.2736Y-0.8465
X2.2736Y-0.8858
X2.2815Y-0.3091
X2.2815Y-0.3406
X2.2815Y-1.0965
X2.2815Y-1.128
X2.2835Y-0.2165
X2.2835Y-1.0039
X2.3228Y-0.876
X2.3233Y-0.217
X2.3233Y-1.0044
X2.3626Y-0.2146
X2.372Y-0.3937
X2.4311Y-0.4823
X2.4311Y-0.5217
X2.4311Y-0.561
X2.4311Y-0.6004
X2.4311Y-0.6398
X2.4311Y-0.6791
X2.4311Y-0.7185
X2.4311Y-1.2697
X2.4311Y-1.3091
X2.4311Y-1.3484
X2.4311Y-1.3878
X2.4311Y-1.4272
X2.4311Y-1.4665
X2.4409Y-0.3937
X2.4409Y-1.1614
X2.4606Y-0.502
X2.4606Y-0.5413
X2.4606Y-0.5807
X2.4606Y-0.6201
X2.4606Y-0.6594
X2.4606Y-0.6988
X2.4606Y-1.2894
X2.4606Y-1.3287
X2.4606Y-1.3681
X2.4606Y-1.4075
X2.4606Y-1.4469
X2.4606Y-1.4862
X2.4902Y-0.4823
X2.4902Y-0.5217
X2.4902Y-0.561
X2.4902Y-0.6004
X2.4902Y-0.6398
X2.4902Y-0.6791
X2.4902Y-0.7185
X2.4902Y-1.2697
X2.4902Y-1.3091
X2.4902Y-1.3484
X2.4902Y-1.3878
X2.4902Y-1.4272
X2.4902Y-1.4665
X2.5098Y-1.1614
X2.5689Y-0.9547
X2.6181Y-0.4134
X2.6378Y-0.4921
X2.6378Y-0.8858
X2.6476Y-1.2894
X2.6673Y-0.0689
X2.6673Y-0.1535
X2.6673Y-1.0433
X2.687Y-1.2894
X2.7067Y-0.0689
X2.7067Y-0.1535
X2.7461Y-0.0689
X2.7461Y-0.1535
X2.7657Y-0.6171
X2.7756Y-0.6791
X2.7953Y-0.5315
X2.7953Y-0.8465
X2.8346Y-0.3642
X2.9134Y-0.3642
X2.939Y-0.5315
X2.9528Y-0.2756
X2.9724Y-0.4232
X2.9843Y-0.5157
X2.9843Y-0.5472
X3.0315Y-0.5157
X3.0315Y-0.5472
X3.062Y-0.3839
X3.0787Y-0.5157
X3.0787Y-0.5472
X3.0807Y-0.315
X3.1102Y-0.4429
X3.1299Y-0.6299
X3.1791Y-0.2461
X3.1791Y-0.2854
X3.1791Y-0.3248
X3.1791Y-0.3642
X3.1791Y-0.4035
X3.189Y-1.5945
X3.189Y-1.6732
X3.2087Y-0.2264
X3.2087Y-0.2657
X3.2087Y-0.3051
X3.2087Y-0.3445
X3.2087Y-0.3839
X3.2382Y-0.2461
X3.2382Y-0.2854
X3.2382Y-0.3248
X3.2382Y-0.3642
X3.2874Y-0.2854
X3.2874Y-0.3248
X3.2874Y-0.3642
X3.3169Y-0.2657
X3.3169Y-0.3051
X3.3169Y-0.3445
X3.3465Y-0.2854
X3.3465Y-0.3248
X3.3563Y-0.4134
X3.3563Y-0.4528
X3.3563Y-0.4921
X3.3563Y-0.5315
X3.3563Y-0.5709
X3.3563Y-0.6102
X3.3563Y-0.6496
X3.3563Y-0.689
X3.3563Y-0.7283
X3.3563Y-0.7677
X3.3563Y-0.8071
X3.3563Y-0.8465
X3.376Y-0.2657
X3.376Y-0.3051
X3.376Y-0.374
X3.376Y-0.8858
X3.3957Y-0.3445
X3.3957Y-0.9154
X3.4154Y-0.374
X3.4154Y-0.8858
X3.435Y-0.3445
X3.435Y-0.9154
X3.4547Y-0.374
X3.4547Y-0.4134
X3.4547Y-0.4528
X3.4547Y-0.4921
X3.4547Y-0.5315
X3.4547Y-0.5709
X3.4547Y-0.6102
X3.4547Y-0.6496
X3.4547Y-0.689
X3.4547Y-0.7283
X3.4547Y-0.7677
X3.4547Y-0.8071
X3.4547Y-0.8465
X3.4547Y-0.8858
X3.4843Y-0.3937
X3.4843Y-0.4331
X3.4843Y-0.4724
X3.4843Y-0.5118
X3.4843Y-0.5512
X3.4843Y-0.5906
X3.4843Y-0.6299
X3.4843Y-0.6693
X3.4843Y-0.7087
X3.4843Y-0.748
X3.4843Y-0.7874
X3.4843Y-0.8268
X3.4843Y-0.8661
X3.5335Y-1.6634
X3.5531Y-1.378
X3.5591Y-1.1811
X3.563Y-1.4173
X3.563Y-1.4567
X3.5925Y-1.1319
X3.5925Y-1.4862
X3.6201Y-1.0925
X3.6319Y-1.4665
X3.6614Y-1.2795
X3.6772Y-1.0925
X3.6909Y-1.4764
X3.7205Y-1.4469
X3.7343Y-1.0925
X3.7598Y-1.4272
X3.8034Y-1.0229
X3.8091Y-1.3287
X3.8091Y-1.122
X3.8484Y-1.122
X3.8484Y-1.437
X3.8878Y-1.122
T2
X3.7008Y-1.6634
X3.7451Y-1.5867
X3.7451Y-1.7401
X3.8337Y-1.5867
X3.8337Y-1.7401
X3.878Y-1.6634
T3
X2.8043Y-1.4945
X2.8043Y-1.5945
X2.8043Y-1.6945
X2.9043Y-1.4945
X2.9043Y-1.5945
X2.9043Y-1.6945
X3.6106Y-0.0984
X3.7106Y-0.0984
X3.8106Y-0.0984
T4
X3.7894Y-1.6634
T0
M30
