G04 #@! TF.FileFunction,Soldermask,Bot*
%FSLAX46Y46*%
G04 Gerber Fmt 4.6, Leading zero omitted, Abs format (unit mm)*
G04 Created by KiCad (PCBNEW (2016-06-29 BZR 6959, Git 30386bd)-product) date Sun Jul  3 09:34:00 2016*
%MOMM*%
%LPD*%
G01*
G04 APERTURE LIST*
%ADD10C,0.100000*%
G04 APERTURE END LIST*
D10*
G36*
X4381290Y-43949200D02*
X4382266Y-43959111D01*
X4385157Y-43968640D01*
X4389851Y-43977423D01*
X4396169Y-43985121D01*
X4403867Y-43991439D01*
X4412650Y-43996133D01*
X4422179Y-43999024D01*
X4432090Y-44000000D01*
X4566710Y-44000000D01*
X4576621Y-43999024D01*
X4586150Y-43996133D01*
X4594933Y-43991439D01*
X4602631Y-43985121D01*
X4608949Y-43977423D01*
X4613643Y-43968640D01*
X4616534Y-43959111D01*
X4617510Y-43949200D01*
X4617510Y-43718000D01*
X5382050Y-43718000D01*
X5382050Y-43949200D01*
X5383026Y-43959111D01*
X5385917Y-43968640D01*
X5390611Y-43977423D01*
X5396929Y-43985121D01*
X5404627Y-43991439D01*
X5413410Y-43996133D01*
X5422939Y-43999024D01*
X5432850Y-44000000D01*
X5567470Y-44000000D01*
X5577381Y-43999024D01*
X5586910Y-43996133D01*
X5595693Y-43991439D01*
X5603391Y-43985121D01*
X5609709Y-43977423D01*
X5614403Y-43968640D01*
X5617294Y-43959111D01*
X5618270Y-43949200D01*
X5618270Y-43718000D01*
X6382810Y-43718000D01*
X6382810Y-43949200D01*
X6383786Y-43959111D01*
X6386677Y-43968640D01*
X6391371Y-43977423D01*
X6397689Y-43985121D01*
X6405387Y-43991439D01*
X6414170Y-43996133D01*
X6423699Y-43999024D01*
X6433610Y-44000000D01*
X6565690Y-44000000D01*
X6575601Y-43999024D01*
X6585130Y-43996133D01*
X6593913Y-43991439D01*
X6601611Y-43985121D01*
X6607929Y-43977423D01*
X6612623Y-43968640D01*
X6615514Y-43959111D01*
X6616490Y-43949200D01*
X6616490Y-43718000D01*
X7381030Y-43718000D01*
X7381030Y-43949200D01*
X7382006Y-43959111D01*
X7384897Y-43968640D01*
X7389591Y-43977423D01*
X7395909Y-43985121D01*
X7403607Y-43991439D01*
X7412390Y-43996133D01*
X7421919Y-43999024D01*
X7431830Y-44000000D01*
X7566450Y-44000000D01*
X7576361Y-43999024D01*
X7585890Y-43996133D01*
X7594673Y-43991439D01*
X7602371Y-43985121D01*
X7608689Y-43977423D01*
X7613383Y-43968640D01*
X7616274Y-43959111D01*
X7617250Y-43949200D01*
X7617250Y-43718000D01*
X8381790Y-43718000D01*
X8381790Y-43949200D01*
X8382766Y-43959111D01*
X8385657Y-43968640D01*
X8390351Y-43977423D01*
X8396669Y-43985121D01*
X8404367Y-43991439D01*
X8413150Y-43996133D01*
X8422679Y-43999024D01*
X8432590Y-44000000D01*
X8567210Y-44000000D01*
X8577121Y-43999024D01*
X8586650Y-43996133D01*
X8595433Y-43991439D01*
X8603131Y-43985121D01*
X8609449Y-43977423D01*
X8614143Y-43968640D01*
X8617034Y-43959111D01*
X8618010Y-43949200D01*
X8618010Y-43718000D01*
X9382550Y-43718000D01*
X9382550Y-43949200D01*
X9383526Y-43959111D01*
X9386417Y-43968640D01*
X9391111Y-43977423D01*
X9397429Y-43985121D01*
X9405127Y-43991439D01*
X9413910Y-43996133D01*
X9423439Y-43999024D01*
X9433350Y-44000000D01*
X9565430Y-44000000D01*
X9575341Y-43999024D01*
X9584870Y-43996133D01*
X9593653Y-43991439D01*
X9601351Y-43985121D01*
X9607669Y-43977423D01*
X9612363Y-43968640D01*
X9615254Y-43959111D01*
X9616230Y-43949200D01*
X9616230Y-43718000D01*
X10380770Y-43718000D01*
X10380770Y-43949200D01*
X10381746Y-43959111D01*
X10384637Y-43968640D01*
X10389331Y-43977423D01*
X10395649Y-43985121D01*
X10403347Y-43991439D01*
X10412130Y-43996133D01*
X10421659Y-43999024D01*
X10431570Y-44000000D01*
X10566190Y-44000000D01*
X10576101Y-43999024D01*
X10585630Y-43996133D01*
X10594413Y-43991439D01*
X10602111Y-43985121D01*
X10608429Y-43977423D01*
X10613123Y-43968640D01*
X10616014Y-43959111D01*
X10616990Y-43949200D01*
X10616990Y-43718000D01*
X11381530Y-43718000D01*
X11381530Y-43949200D01*
X11382506Y-43959111D01*
X11385397Y-43968640D01*
X11390091Y-43977423D01*
X11396409Y-43985121D01*
X11404107Y-43991439D01*
X11412890Y-43996133D01*
X11422419Y-43999024D01*
X11432330Y-44000000D01*
X11566950Y-44000000D01*
X11576861Y-43999024D01*
X11586390Y-43996133D01*
X11595173Y-43991439D01*
X11602871Y-43985121D01*
X11609189Y-43977423D01*
X11613883Y-43968640D01*
X11616774Y-43959111D01*
X11617750Y-43949200D01*
X11617750Y-43718000D01*
X12382290Y-43718000D01*
X12382290Y-43949200D01*
X12383266Y-43959111D01*
X12386157Y-43968640D01*
X12390851Y-43977423D01*
X12397169Y-43985121D01*
X12404867Y-43991439D01*
X12413650Y-43996133D01*
X12423179Y-43999024D01*
X12433090Y-44000000D01*
X12565170Y-44000000D01*
X12575081Y-43999024D01*
X12584610Y-43996133D01*
X12593393Y-43991439D01*
X12601091Y-43985121D01*
X12607409Y-43977423D01*
X12612103Y-43968640D01*
X12614994Y-43959111D01*
X12615970Y-43949200D01*
X12615970Y-43718000D01*
X13380510Y-43718000D01*
X13380510Y-43949200D01*
X13381486Y-43959111D01*
X13384377Y-43968640D01*
X13389071Y-43977423D01*
X13395389Y-43985121D01*
X13403087Y-43991439D01*
X13411870Y-43996133D01*
X13421399Y-43999024D01*
X13431310Y-44000000D01*
X15567450Y-44000000D01*
X15577361Y-43999024D01*
X15586890Y-43996133D01*
X15595673Y-43991439D01*
X15603371Y-43985121D01*
X15609689Y-43977423D01*
X15614383Y-43968640D01*
X15617274Y-43959111D01*
X15618250Y-43949200D01*
X15618250Y-43718000D01*
X16382790Y-43718000D01*
X16382790Y-43949200D01*
X16383766Y-43959111D01*
X16386657Y-43968640D01*
X16391351Y-43977423D01*
X16397669Y-43985121D01*
X16405367Y-43991439D01*
X16414150Y-43996133D01*
X16423679Y-43999024D01*
X16433590Y-44000000D01*
X16565670Y-44000000D01*
X16575581Y-43999024D01*
X16585110Y-43996133D01*
X16593893Y-43991439D01*
X16601591Y-43985121D01*
X16607909Y-43977423D01*
X16612603Y-43968640D01*
X16615494Y-43959111D01*
X16616470Y-43949200D01*
X16616470Y-43718000D01*
X17381010Y-43718000D01*
X17381010Y-43949200D01*
X17381986Y-43959111D01*
X17384877Y-43968640D01*
X17389571Y-43977423D01*
X17395889Y-43985121D01*
X17403587Y-43991439D01*
X17412370Y-43996133D01*
X17421899Y-43999024D01*
X17431810Y-44000000D01*
X17566430Y-44000000D01*
X17576341Y-43999024D01*
X17585870Y-43996133D01*
X17594653Y-43991439D01*
X17602351Y-43985121D01*
X17608669Y-43977423D01*
X17613363Y-43968640D01*
X17616254Y-43959111D01*
X17617230Y-43949200D01*
X17617230Y-43718000D01*
X18381770Y-43718000D01*
X18381770Y-43949200D01*
X18382746Y-43959111D01*
X18385637Y-43968640D01*
X18390331Y-43977423D01*
X18396649Y-43985121D01*
X18404347Y-43991439D01*
X18413130Y-43996133D01*
X18422659Y-43999024D01*
X18432570Y-44000000D01*
X18567190Y-44000000D01*
X18577101Y-43999024D01*
X18586630Y-43996133D01*
X18595413Y-43991439D01*
X18603111Y-43985121D01*
X18609429Y-43977423D01*
X18614123Y-43968640D01*
X18617014Y-43959111D01*
X18617990Y-43949200D01*
X18617990Y-43718000D01*
X19382530Y-43718000D01*
X19382530Y-43949200D01*
X19383506Y-43959111D01*
X19386397Y-43968640D01*
X19391091Y-43977423D01*
X19397409Y-43985121D01*
X19405107Y-43991439D01*
X19413890Y-43996133D01*
X19423419Y-43999024D01*
X19433330Y-44000000D01*
X19565410Y-44000000D01*
X19575321Y-43999024D01*
X19584850Y-43996133D01*
X19593633Y-43991439D01*
X19601331Y-43985121D01*
X19607649Y-43977423D01*
X19612343Y-43968640D01*
X19615234Y-43959111D01*
X19616210Y-43949200D01*
X19616210Y-43718000D01*
X20380750Y-43718000D01*
X20380750Y-43949200D01*
X20381726Y-43959111D01*
X20384617Y-43968640D01*
X20389311Y-43977423D01*
X20395629Y-43985121D01*
X20403327Y-43991439D01*
X20412110Y-43996133D01*
X20421639Y-43999024D01*
X20431550Y-44000000D01*
X20566170Y-44000000D01*
X20576081Y-43999024D01*
X20585610Y-43996133D01*
X20594393Y-43991439D01*
X20602091Y-43985121D01*
X20608409Y-43977423D01*
X20613103Y-43968640D01*
X20615994Y-43959111D01*
X20616970Y-43949200D01*
X20616970Y-43718000D01*
X21381510Y-43718000D01*
X21381510Y-43949200D01*
X21382486Y-43959111D01*
X21385377Y-43968640D01*
X21390071Y-43977423D01*
X21396389Y-43985121D01*
X21404087Y-43991439D01*
X21412870Y-43996133D01*
X21422399Y-43999024D01*
X21432310Y-44000000D01*
X21566930Y-44000000D01*
X21576841Y-43999024D01*
X21586370Y-43996133D01*
X21595153Y-43991439D01*
X21602851Y-43985121D01*
X21609169Y-43977423D01*
X21613863Y-43968640D01*
X21616754Y-43959111D01*
X21617730Y-43949200D01*
X21617730Y-43718000D01*
X22382270Y-43718000D01*
X22382270Y-43949200D01*
X22383246Y-43959111D01*
X22386137Y-43968640D01*
X22390831Y-43977423D01*
X22397149Y-43985121D01*
X22404847Y-43991439D01*
X22413630Y-43996133D01*
X22423159Y-43999024D01*
X22433070Y-44000000D01*
X22565150Y-44000000D01*
X22575061Y-43999024D01*
X22584590Y-43996133D01*
X22593373Y-43991439D01*
X22601071Y-43985121D01*
X22607389Y-43977423D01*
X22612083Y-43968640D01*
X22614974Y-43959111D01*
X22615950Y-43949200D01*
X22615950Y-43718000D01*
X23380490Y-43718000D01*
X23380490Y-43949200D01*
X23381466Y-43959111D01*
X23384357Y-43968640D01*
X23389051Y-43977423D01*
X23395369Y-43985121D01*
X23403067Y-43991439D01*
X23411850Y-43996133D01*
X23421379Y-43999024D01*
X23431290Y-44000000D01*
X23565910Y-44000000D01*
X23575821Y-43999024D01*
X23585350Y-43996133D01*
X23594133Y-43991439D01*
X23601831Y-43985121D01*
X23608149Y-43977423D01*
X23612843Y-43968640D01*
X23615734Y-43959111D01*
X23616710Y-43949200D01*
X23616710Y-43718000D01*
X24381250Y-43718000D01*
X24381250Y-43949200D01*
X24382226Y-43959111D01*
X24385117Y-43968640D01*
X24389811Y-43977423D01*
X24396129Y-43985121D01*
X24403827Y-43991439D01*
X24412610Y-43996133D01*
X24422139Y-43999024D01*
X24432050Y-44000000D01*
X24566670Y-44000000D01*
X24576581Y-43999024D01*
X24586110Y-43996133D01*
X24594893Y-43991439D01*
X24602591Y-43985121D01*
X24608909Y-43977423D01*
X24613603Y-43968640D01*
X24616494Y-43959111D01*
X24617470Y-43949200D01*
X24617470Y-43718000D01*
X25382010Y-43718000D01*
X25382010Y-43949200D01*
X25382986Y-43959111D01*
X25385877Y-43968640D01*
X25390571Y-43977423D01*
X25396889Y-43985121D01*
X25404587Y-43991439D01*
X25413370Y-43996133D01*
X25422899Y-43999024D01*
X25432810Y-44000000D01*
X25567430Y-44000000D01*
X25577341Y-43999024D01*
X25586870Y-43996133D01*
X25595653Y-43991439D01*
X25603351Y-43985121D01*
X25609669Y-43977423D01*
X25614363Y-43968640D01*
X25617254Y-43959111D01*
X25618230Y-43949200D01*
X25618230Y-43718000D01*
X26382770Y-43718000D01*
X26382770Y-43949200D01*
X26383746Y-43959111D01*
X26386637Y-43968640D01*
X26391331Y-43977423D01*
X26397649Y-43985121D01*
X26405347Y-43991439D01*
X26414130Y-43996133D01*
X26423659Y-43999024D01*
X26433570Y-44000000D01*
X26565650Y-44000000D01*
X26575561Y-43999024D01*
X26585090Y-43996133D01*
X26593873Y-43991439D01*
X26601571Y-43985121D01*
X26607889Y-43977423D01*
X26612583Y-43968640D01*
X26615474Y-43959111D01*
X26616450Y-43949200D01*
X26616450Y-43718000D01*
X27380990Y-43718000D01*
X27380990Y-43949200D01*
X27381966Y-43959111D01*
X27384857Y-43968640D01*
X27389551Y-43977423D01*
X27395869Y-43985121D01*
X27403567Y-43991439D01*
X27412350Y-43996133D01*
X27421879Y-43999024D01*
X27431790Y-44000000D01*
X27566410Y-44000000D01*
X27576321Y-43999024D01*
X27585850Y-43996133D01*
X27594633Y-43991439D01*
X27602331Y-43985121D01*
X27608649Y-43977423D01*
X27613343Y-43968640D01*
X27616234Y-43959111D01*
X27617210Y-43949200D01*
X27617210Y-43718000D01*
X28381750Y-43718000D01*
X28381750Y-43949200D01*
X28382726Y-43959111D01*
X28385617Y-43968640D01*
X28390311Y-43977423D01*
X28396629Y-43985121D01*
X28404327Y-43991439D01*
X28413110Y-43996133D01*
X28422639Y-43999024D01*
X28432550Y-44000000D01*
X28567170Y-44000000D01*
X28577081Y-43999024D01*
X28586610Y-43996133D01*
X28595393Y-43991439D01*
X28603091Y-43985121D01*
X28609409Y-43977423D01*
X28614103Y-43968640D01*
X28616994Y-43959111D01*
X28617970Y-43949200D01*
X28617970Y-43718000D01*
X29382510Y-43718000D01*
X29382510Y-43949200D01*
X29383486Y-43959111D01*
X29386377Y-43968640D01*
X29391071Y-43977423D01*
X29397389Y-43985121D01*
X29405087Y-43991439D01*
X29413870Y-43996133D01*
X29423399Y-43999024D01*
X29433310Y-44000000D01*
X29565390Y-44000000D01*
X29575301Y-43999024D01*
X29584830Y-43996133D01*
X29593613Y-43991439D01*
X29601311Y-43985121D01*
X29607629Y-43977423D01*
X29612323Y-43968640D01*
X29615214Y-43959111D01*
X29616190Y-43949200D01*
X29616190Y-43718000D01*
X30380730Y-43718000D01*
X30380730Y-43949200D01*
X30381706Y-43959111D01*
X30384597Y-43968640D01*
X30389291Y-43977423D01*
X30395609Y-43985121D01*
X30403307Y-43991439D01*
X30412090Y-43996133D01*
X30421619Y-43999024D01*
X30431530Y-44000000D01*
X30566150Y-44000000D01*
X30576061Y-43999024D01*
X30585590Y-43996133D01*
X30594373Y-43991439D01*
X30602071Y-43985121D01*
X30608389Y-43977423D01*
X30613083Y-43968640D01*
X30615974Y-43959111D01*
X30616950Y-43949200D01*
X30616950Y-43718000D01*
X31381490Y-43718000D01*
X31381490Y-43949200D01*
X31382466Y-43959111D01*
X31385357Y-43968640D01*
X31390051Y-43977423D01*
X31396369Y-43985121D01*
X31404067Y-43991439D01*
X31412850Y-43996133D01*
X31422379Y-43999024D01*
X31432290Y-44000000D01*
X31566910Y-44000000D01*
X31576821Y-43999024D01*
X31586350Y-43996133D01*
X31595133Y-43991439D01*
X31602831Y-43985121D01*
X31609149Y-43977423D01*
X31613843Y-43968640D01*
X31616734Y-43959111D01*
X31617710Y-43949200D01*
X31617710Y-43718000D01*
X32382250Y-43718000D01*
X32382250Y-43949200D01*
X32383226Y-43959111D01*
X32386117Y-43968640D01*
X32390811Y-43977423D01*
X32397129Y-43985121D01*
X32404827Y-43991439D01*
X32413610Y-43996133D01*
X32423139Y-43999024D01*
X32433050Y-44000000D01*
X32565130Y-44000000D01*
X32575041Y-43999024D01*
X32584570Y-43996133D01*
X32593353Y-43991439D01*
X32601051Y-43985121D01*
X32607369Y-43977423D01*
X32612063Y-43968640D01*
X32614954Y-43959111D01*
X32615930Y-43949200D01*
X32615930Y-43718000D01*
X33380470Y-43718000D01*
X33380470Y-43949200D01*
X33381446Y-43959111D01*
X33384337Y-43968640D01*
X33389031Y-43977423D01*
X33395349Y-43985121D01*
X33403047Y-43991439D01*
X33411830Y-43996133D01*
X33421359Y-43999024D01*
X33431270Y-44000000D01*
X33565890Y-44000000D01*
X33575801Y-43999024D01*
X33585330Y-43996133D01*
X33594113Y-43991439D01*
X33601811Y-43985121D01*
X33608129Y-43977423D01*
X33612823Y-43968640D01*
X33615714Y-43959111D01*
X33616690Y-43949200D01*
X33616690Y-43718000D01*
X34381230Y-43718000D01*
X34381230Y-43949200D01*
X34382206Y-43959111D01*
X34385097Y-43968640D01*
X34389791Y-43977423D01*
X34396109Y-43985121D01*
X34403807Y-43991439D01*
X34412590Y-43996133D01*
X34422119Y-43999024D01*
X34432030Y-44000000D01*
X34566650Y-44000000D01*
X34576561Y-43999024D01*
X34586090Y-43996133D01*
X34594873Y-43991439D01*
X34602571Y-43985121D01*
X34608889Y-43977423D01*
X34613583Y-43968640D01*
X34616474Y-43959111D01*
X34617450Y-43949200D01*
X34617450Y-43718000D01*
X35381990Y-43718000D01*
X35381990Y-43949200D01*
X35382966Y-43959111D01*
X35385857Y-43968640D01*
X35390551Y-43977423D01*
X35396869Y-43985121D01*
X35404567Y-43991439D01*
X35413350Y-43996133D01*
X35422879Y-43999024D01*
X35432790Y-44000000D01*
X35567410Y-44000000D01*
X35577321Y-43999024D01*
X35586850Y-43996133D01*
X35595633Y-43991439D01*
X35603331Y-43985121D01*
X35609649Y-43977423D01*
X35614343Y-43968640D01*
X35617234Y-43959111D01*
X35618210Y-43949200D01*
X35618210Y-43718000D01*
X36382750Y-43718000D01*
X36382750Y-43949200D01*
X36383726Y-43959111D01*
X36386617Y-43968640D01*
X36391311Y-43977423D01*
X36397629Y-43985121D01*
X36405327Y-43991439D01*
X36414110Y-43996133D01*
X36423639Y-43999024D01*
X36433550Y-44000000D01*
X36565630Y-44000000D01*
X36575541Y-43999024D01*
X36585070Y-43996133D01*
X36593853Y-43991439D01*
X36601551Y-43985121D01*
X36607869Y-43977423D01*
X36612563Y-43968640D01*
X36615454Y-43959111D01*
X36616430Y-43949200D01*
X36616430Y-43718000D01*
X37380970Y-43718000D01*
X37380970Y-43949200D01*
X37381946Y-43959111D01*
X37384837Y-43968640D01*
X37389531Y-43977423D01*
X37395849Y-43985121D01*
X37403547Y-43991439D01*
X37412330Y-43996133D01*
X37421859Y-43999024D01*
X37431770Y-44000000D01*
X37566390Y-44000000D01*
X37576301Y-43999024D01*
X37585830Y-43996133D01*
X37594613Y-43991439D01*
X37602311Y-43985121D01*
X37608629Y-43977423D01*
X37613323Y-43968640D01*
X37616214Y-43959111D01*
X37617190Y-43949200D01*
X37617190Y-43718000D01*
X38381730Y-43718000D01*
X38381730Y-43949200D01*
X38382706Y-43959111D01*
X38385597Y-43968640D01*
X38390291Y-43977423D01*
X38396609Y-43985121D01*
X38404307Y-43991439D01*
X38413090Y-43996133D01*
X38422619Y-43999024D01*
X38432530Y-44000000D01*
X38567150Y-44000000D01*
X38577061Y-43999024D01*
X38586590Y-43996133D01*
X38595373Y-43991439D01*
X38603071Y-43985121D01*
X38609389Y-43977423D01*
X38614083Y-43968640D01*
X38616974Y-43959111D01*
X38617950Y-43949200D01*
X38617950Y-43718000D01*
X39382490Y-43718000D01*
X39382490Y-43949200D01*
X39383466Y-43959111D01*
X39386357Y-43968640D01*
X39391051Y-43977423D01*
X39397369Y-43985121D01*
X39405067Y-43991439D01*
X39413850Y-43996133D01*
X39423379Y-43999024D01*
X39433290Y-44000000D01*
X39565370Y-44000000D01*
X39575281Y-43999024D01*
X39584810Y-43996133D01*
X39593593Y-43991439D01*
X39601291Y-43985121D01*
X39607609Y-43977423D01*
X39612303Y-43968640D01*
X39615194Y-43959111D01*
X39616170Y-43949200D01*
X39616170Y-43718000D01*
X40380710Y-43718000D01*
X40380710Y-43949200D01*
X40381686Y-43959111D01*
X40384577Y-43968640D01*
X40389271Y-43977423D01*
X40395589Y-43985121D01*
X40403287Y-43991439D01*
X40412070Y-43996133D01*
X40421599Y-43999024D01*
X40431510Y-44000000D01*
X40566130Y-44000000D01*
X40576041Y-43999024D01*
X40585570Y-43996133D01*
X40594353Y-43991439D01*
X40602051Y-43985121D01*
X40608369Y-43977423D01*
X40613063Y-43968640D01*
X40615954Y-43959111D01*
X40616930Y-43949200D01*
X40616930Y-43718000D01*
X41381470Y-43718000D01*
X41381470Y-43949200D01*
X41382446Y-43959111D01*
X41385337Y-43968640D01*
X41390031Y-43977423D01*
X41396349Y-43985121D01*
X41404047Y-43991439D01*
X41412830Y-43996133D01*
X41422359Y-43999024D01*
X41432270Y-44000000D01*
X41566890Y-44000000D01*
X41576801Y-43999024D01*
X41586330Y-43996133D01*
X41595113Y-43991439D01*
X41602811Y-43985121D01*
X41609129Y-43977423D01*
X41613823Y-43968640D01*
X41616714Y-43959111D01*
X41617690Y-43949200D01*
X41617690Y-43718000D01*
X42382230Y-43718000D01*
X42382230Y-43949200D01*
X42383206Y-43959111D01*
X42386097Y-43968640D01*
X42390791Y-43977423D01*
X42397109Y-43985121D01*
X42404807Y-43991439D01*
X42413590Y-43996133D01*
X42423119Y-43999024D01*
X42433030Y-44000000D01*
X42565110Y-44000000D01*
X42575021Y-43999024D01*
X42584550Y-43996133D01*
X42593333Y-43991439D01*
X42601031Y-43985121D01*
X42607349Y-43977423D01*
X42612043Y-43968640D01*
X42614934Y-43959111D01*
X42615910Y-43949200D01*
X42615910Y-43718000D01*
X43380450Y-43718000D01*
X43380450Y-43949200D01*
X43381426Y-43959111D01*
X43384317Y-43968640D01*
X43389011Y-43977423D01*
X43395329Y-43985121D01*
X43403027Y-43991439D01*
X43411810Y-43996133D01*
X43421339Y-43999024D01*
X43431250Y-44000000D01*
X43565870Y-44000000D01*
X43575781Y-43999024D01*
X43585310Y-43996133D01*
X43594093Y-43991439D01*
X43601791Y-43985121D01*
X43608109Y-43977423D01*
X43612803Y-43968640D01*
X43615694Y-43959111D01*
X43616670Y-43949200D01*
X43616670Y-43718000D01*
X44381210Y-43718000D01*
X44381210Y-43949200D01*
X44382186Y-43959111D01*
X44385077Y-43968640D01*
X44389771Y-43977423D01*
X44396089Y-43985121D01*
X44403787Y-43991439D01*
X44412570Y-43996133D01*
X44422099Y-43999024D01*
X44432010Y-44000000D01*
X44566630Y-44000000D01*
X44576541Y-43999024D01*
X44586070Y-43996133D01*
X44594853Y-43991439D01*
X44602551Y-43985121D01*
X44608869Y-43977423D01*
X44613563Y-43968640D01*
X44616454Y-43959111D01*
X44617430Y-43949200D01*
X44617430Y-43718000D01*
X45381970Y-43718000D01*
X45381970Y-43949200D01*
X45382946Y-43959111D01*
X45385837Y-43968640D01*
X45390531Y-43977423D01*
X45396849Y-43985121D01*
X45404547Y-43991439D01*
X45413330Y-43996133D01*
X45422859Y-43999024D01*
X45432770Y-44000000D01*
X45567390Y-44000000D01*
X45577301Y-43999024D01*
X45586830Y-43996133D01*
X45595613Y-43991439D01*
X45603311Y-43985121D01*
X45609629Y-43977423D01*
X45614323Y-43968640D01*
X45617214Y-43959111D01*
X45618190Y-43949200D01*
X45618190Y-43718000D01*
X46382730Y-43718000D01*
X46382730Y-43949200D01*
X46383706Y-43959111D01*
X46386597Y-43968640D01*
X46391291Y-43977423D01*
X46397609Y-43985121D01*
X46405307Y-43991439D01*
X46414090Y-43996133D01*
X46423619Y-43999024D01*
X46433530Y-44000000D01*
X46565610Y-44000000D01*
X46575521Y-43999024D01*
X46585050Y-43996133D01*
X46593833Y-43991439D01*
X46601531Y-43985121D01*
X46607849Y-43977423D01*
X46612543Y-43968640D01*
X46615434Y-43959111D01*
X46616410Y-43949200D01*
X46616410Y-43718000D01*
X47380950Y-43718000D01*
X47380950Y-43949200D01*
X47381926Y-43959111D01*
X47384817Y-43968640D01*
X47389511Y-43977423D01*
X47395829Y-43985121D01*
X47403527Y-43991439D01*
X47412310Y-43996133D01*
X47421839Y-43999024D01*
X47431750Y-44000000D01*
X47566370Y-44000000D01*
X47576281Y-43999024D01*
X47585810Y-43996133D01*
X47594593Y-43991439D01*
X47602291Y-43985121D01*
X47608609Y-43977423D01*
X47613303Y-43968640D01*
X47616194Y-43959111D01*
X47617170Y-43949200D01*
X47617170Y-43718000D01*
X48381710Y-43718000D01*
X48381710Y-43949200D01*
X48382686Y-43959111D01*
X48385577Y-43968640D01*
X48390271Y-43977423D01*
X48396589Y-43985121D01*
X48404287Y-43991439D01*
X48413070Y-43996133D01*
X48422599Y-43999024D01*
X48432510Y-44000000D01*
X48567130Y-44000000D01*
X48577041Y-43999024D01*
X48586570Y-43996133D01*
X48595353Y-43991439D01*
X48603051Y-43985121D01*
X48609369Y-43977423D01*
X48614063Y-43968640D01*
X48616954Y-43959111D01*
X48617930Y-43949200D01*
X48617930Y-43718000D01*
X49382470Y-43718000D01*
X49382470Y-43949200D01*
X49383446Y-43959111D01*
X49386337Y-43968640D01*
X49391031Y-43977423D01*
X49397349Y-43985121D01*
X49405047Y-43991439D01*
X49413830Y-43996133D01*
X49423359Y-43999024D01*
X49433270Y-44000000D01*
X49565350Y-44000000D01*
X49575261Y-43999024D01*
X49584790Y-43996133D01*
X49593573Y-43991439D01*
X49601271Y-43985121D01*
X49607589Y-43977423D01*
X49612283Y-43968640D01*
X49615174Y-43959111D01*
X49616150Y-43949200D01*
X49616150Y-43718000D01*
X50380690Y-43718000D01*
X50380690Y-43949200D01*
X50381666Y-43959111D01*
X50384557Y-43968640D01*
X50389251Y-43977423D01*
X50395569Y-43985121D01*
X50403267Y-43991439D01*
X50412050Y-43996133D01*
X50421579Y-43999024D01*
X50431490Y-44000000D01*
X50566110Y-44000000D01*
X50576021Y-43999024D01*
X50585550Y-43996133D01*
X50594333Y-43991439D01*
X50602031Y-43985121D01*
X50608349Y-43977423D01*
X50613043Y-43968640D01*
X50615934Y-43959111D01*
X50616910Y-43949200D01*
X50616910Y-43718000D01*
X51381450Y-43718000D01*
X51381450Y-43949200D01*
X51382426Y-43959111D01*
X51385317Y-43968640D01*
X51390011Y-43977423D01*
X51396329Y-43985121D01*
X51404027Y-43991439D01*
X51412810Y-43996133D01*
X51422339Y-43999024D01*
X51432250Y-44000000D01*
X51566870Y-44000000D01*
X51576781Y-43999024D01*
X51586310Y-43996133D01*
X51595093Y-43991439D01*
X51602791Y-43985121D01*
X51609109Y-43977423D01*
X51613803Y-43968640D01*
X51616694Y-43959111D01*
X51617670Y-43949200D01*
X51617670Y-43718000D01*
X52382210Y-43718000D01*
X52382210Y-43949200D01*
X52383186Y-43959111D01*
X52386077Y-43968640D01*
X52390771Y-43977423D01*
X52397089Y-43985121D01*
X52404787Y-43991439D01*
X52413570Y-43996133D01*
X52423099Y-43999024D01*
X52433010Y-44000000D01*
X52565090Y-44000000D01*
X52575001Y-43999024D01*
X52584530Y-43996133D01*
X52593313Y-43991439D01*
X52601011Y-43985121D01*
X52607329Y-43977423D01*
X52612023Y-43968640D01*
X52614914Y-43959111D01*
X52615890Y-43949200D01*
X52615890Y-43718000D01*
X53380430Y-43718000D01*
X53380430Y-43949200D01*
X53381406Y-43959111D01*
X53384297Y-43968640D01*
X53388991Y-43977423D01*
X53395309Y-43985121D01*
X53403007Y-43991439D01*
X53411790Y-43996133D01*
X53421319Y-43999024D01*
X53431230Y-44000000D01*
X54000000Y-44000000D01*
X54000000Y-50000000D01*
X2000000Y-50000000D01*
X2000000Y-44000000D01*
X2565190Y-44000000D01*
X2575101Y-43999024D01*
X2584630Y-43996133D01*
X2593413Y-43991439D01*
X2601111Y-43985121D01*
X2607429Y-43977423D01*
X2612123Y-43968640D01*
X2615014Y-43959111D01*
X2615990Y-43949200D01*
X2615990Y-43719270D01*
X3380530Y-43719270D01*
X3380530Y-43949200D01*
X3381506Y-43959111D01*
X3384397Y-43968640D01*
X3389091Y-43977423D01*
X3395409Y-43985121D01*
X3403107Y-43991439D01*
X3411890Y-43996133D01*
X3421419Y-43999024D01*
X3431330Y-44000000D01*
X3565950Y-44000000D01*
X3575861Y-43999024D01*
X3585390Y-43996133D01*
X3594173Y-43991439D01*
X3601871Y-43985121D01*
X3608189Y-43977423D01*
X3612883Y-43968640D01*
X3615774Y-43959111D01*
X3616750Y-43949200D01*
X3616750Y-43718000D01*
X4381290Y-43718000D01*
X4381290Y-43949200D01*
X4381290Y-43949200D01*
G37*
G36*
X96281356Y-38999999D02*
X96281711Y-39000000D01*
X100250000Y-39000000D01*
X100250000Y-46250000D01*
X93000000Y-46250000D01*
X93000000Y-42551181D01*
X92999165Y-42542010D01*
X92995726Y-42523270D01*
X93004624Y-41885974D01*
X93137140Y-41262541D01*
X93388220Y-40676724D01*
X93748308Y-40150831D01*
X94203682Y-39704895D01*
X94737002Y-39355901D01*
X95327951Y-39117141D01*
X95954016Y-38997714D01*
X96281356Y-38999999D01*
X96281356Y-38999999D01*
G37*
G36*
X71367036Y-42246280D02*
X71373766Y-42246327D01*
X71527714Y-42263595D01*
X71675375Y-42310436D01*
X71811127Y-42385066D01*
X71929797Y-42484642D01*
X72026866Y-42605372D01*
X72098636Y-42742656D01*
X72142375Y-42891266D01*
X72142378Y-42891302D01*
X72142381Y-42891311D01*
X72156416Y-43045538D01*
X72140228Y-43199558D01*
X72140227Y-43199563D01*
X72140222Y-43199606D01*
X72094413Y-43347590D01*
X72020733Y-43483859D01*
X71921987Y-43603222D01*
X71801939Y-43701131D01*
X71665159Y-43773858D01*
X71516858Y-43818633D01*
X71362684Y-43833750D01*
X70589279Y-43833750D01*
X70584964Y-43833720D01*
X70578234Y-43833673D01*
X70424286Y-43816405D01*
X70276625Y-43769564D01*
X70140873Y-43694934D01*
X70022203Y-43595358D01*
X69925134Y-43474628D01*
X69853364Y-43337344D01*
X69809625Y-43188734D01*
X69809622Y-43188698D01*
X69809619Y-43188689D01*
X69795584Y-43034462D01*
X69811772Y-42880442D01*
X69811773Y-42880437D01*
X69811778Y-42880394D01*
X69857587Y-42732410D01*
X69931267Y-42596141D01*
X70030013Y-42476778D01*
X70150061Y-42378869D01*
X70286841Y-42306142D01*
X70435142Y-42261367D01*
X70589316Y-42246250D01*
X71362721Y-42246250D01*
X71367036Y-42246280D01*
X71367036Y-42246280D01*
G37*
G36*
X75198750Y-43833750D02*
X72849250Y-43833750D01*
X72849250Y-42246250D01*
X75198750Y-42246250D01*
X75198750Y-43833750D01*
X75198750Y-43833750D01*
G37*
G36*
X71367036Y-39706280D02*
X71373766Y-39706327D01*
X71527714Y-39723595D01*
X71675375Y-39770436D01*
X71811127Y-39845066D01*
X71929797Y-39944642D01*
X72026866Y-40065372D01*
X72098636Y-40202656D01*
X72142375Y-40351266D01*
X72142378Y-40351302D01*
X72142381Y-40351311D01*
X72156416Y-40505538D01*
X72140228Y-40659558D01*
X72140227Y-40659563D01*
X72140222Y-40659606D01*
X72094413Y-40807590D01*
X72020733Y-40943859D01*
X71921987Y-41063222D01*
X71801939Y-41161131D01*
X71665159Y-41233858D01*
X71516858Y-41278633D01*
X71362684Y-41293750D01*
X70589279Y-41293750D01*
X70584964Y-41293720D01*
X70578234Y-41293673D01*
X70424286Y-41276405D01*
X70276625Y-41229564D01*
X70140873Y-41154934D01*
X70022203Y-41055358D01*
X69925134Y-40934628D01*
X69853364Y-40797344D01*
X69809625Y-40648734D01*
X69809622Y-40648698D01*
X69809619Y-40648689D01*
X69795584Y-40494462D01*
X69811772Y-40340442D01*
X69811773Y-40340437D01*
X69811778Y-40340394D01*
X69857587Y-40192410D01*
X69931267Y-40056141D01*
X70030013Y-39936778D01*
X70150061Y-39838869D01*
X70286841Y-39766142D01*
X70435142Y-39721367D01*
X70589316Y-39706250D01*
X71362721Y-39706250D01*
X71367036Y-39706280D01*
X71367036Y-39706280D01*
G37*
G36*
X74415036Y-39706280D02*
X74421766Y-39706327D01*
X74575714Y-39723595D01*
X74723375Y-39770436D01*
X74859127Y-39845066D01*
X74977797Y-39944642D01*
X75074866Y-40065372D01*
X75146636Y-40202656D01*
X75190375Y-40351266D01*
X75190378Y-40351302D01*
X75190381Y-40351311D01*
X75204416Y-40505538D01*
X75188228Y-40659558D01*
X75188227Y-40659563D01*
X75188222Y-40659606D01*
X75142413Y-40807590D01*
X75068733Y-40943859D01*
X74969987Y-41063222D01*
X74849939Y-41161131D01*
X74713159Y-41233858D01*
X74564858Y-41278633D01*
X74410684Y-41293750D01*
X73637279Y-41293750D01*
X73632964Y-41293720D01*
X73626234Y-41293673D01*
X73472286Y-41276405D01*
X73324625Y-41229564D01*
X73188873Y-41154934D01*
X73070203Y-41055358D01*
X72973134Y-40934628D01*
X72901364Y-40797344D01*
X72857625Y-40648734D01*
X72857622Y-40648698D01*
X72857619Y-40648689D01*
X72843584Y-40494462D01*
X72859772Y-40340442D01*
X72859773Y-40340437D01*
X72859778Y-40340394D01*
X72905587Y-40192410D01*
X72979267Y-40056141D01*
X73078013Y-39936778D01*
X73198061Y-39838869D01*
X73334841Y-39766142D01*
X73483142Y-39721367D01*
X73637316Y-39706250D01*
X74410721Y-39706250D01*
X74415036Y-39706280D01*
X74415036Y-39706280D01*
G37*
G36*
X74415036Y-37166280D02*
X74421766Y-37166327D01*
X74575714Y-37183595D01*
X74723375Y-37230436D01*
X74859127Y-37305066D01*
X74977797Y-37404642D01*
X75074866Y-37525372D01*
X75146636Y-37662656D01*
X75190375Y-37811266D01*
X75190378Y-37811302D01*
X75190381Y-37811311D01*
X75204416Y-37965538D01*
X75188228Y-38119558D01*
X75188227Y-38119563D01*
X75188222Y-38119606D01*
X75142413Y-38267590D01*
X75068733Y-38403859D01*
X74969987Y-38523222D01*
X74849939Y-38621131D01*
X74713159Y-38693858D01*
X74564858Y-38738633D01*
X74410684Y-38753750D01*
X73637279Y-38753750D01*
X73632964Y-38753720D01*
X73626234Y-38753673D01*
X73472286Y-38736405D01*
X73324625Y-38689564D01*
X73188873Y-38614934D01*
X73070203Y-38515358D01*
X72973134Y-38394628D01*
X72901364Y-38257344D01*
X72857625Y-38108734D01*
X72857622Y-38108698D01*
X72857619Y-38108689D01*
X72843584Y-37954462D01*
X72859772Y-37800442D01*
X72859773Y-37800437D01*
X72859778Y-37800394D01*
X72905587Y-37652410D01*
X72979267Y-37516141D01*
X73078013Y-37396778D01*
X73198061Y-37298869D01*
X73334841Y-37226142D01*
X73483142Y-37181367D01*
X73637316Y-37166250D01*
X74410721Y-37166250D01*
X74415036Y-37166280D01*
X74415036Y-37166280D01*
G37*
G36*
X71367036Y-37166280D02*
X71373766Y-37166327D01*
X71527714Y-37183595D01*
X71675375Y-37230436D01*
X71811127Y-37305066D01*
X71929797Y-37404642D01*
X72026866Y-37525372D01*
X72098636Y-37662656D01*
X72142375Y-37811266D01*
X72142378Y-37811302D01*
X72142381Y-37811311D01*
X72156416Y-37965538D01*
X72140228Y-38119558D01*
X72140227Y-38119563D01*
X72140222Y-38119606D01*
X72094413Y-38267590D01*
X72020733Y-38403859D01*
X71921987Y-38523222D01*
X71801939Y-38621131D01*
X71665159Y-38693858D01*
X71516858Y-38738633D01*
X71362684Y-38753750D01*
X70589279Y-38753750D01*
X70584964Y-38753720D01*
X70578234Y-38753673D01*
X70424286Y-38736405D01*
X70276625Y-38689564D01*
X70140873Y-38614934D01*
X70022203Y-38515358D01*
X69925134Y-38394628D01*
X69853364Y-38257344D01*
X69809625Y-38108734D01*
X69809622Y-38108698D01*
X69809619Y-38108689D01*
X69795584Y-37954462D01*
X69811772Y-37800442D01*
X69811773Y-37800437D01*
X69811778Y-37800394D01*
X69857587Y-37652410D01*
X69931267Y-37516141D01*
X70030013Y-37396778D01*
X70150061Y-37298869D01*
X70286841Y-37226142D01*
X70435142Y-37181367D01*
X70589316Y-37166250D01*
X71362721Y-37166250D01*
X71367036Y-37166280D01*
X71367036Y-37166280D01*
G37*
G36*
X5250000Y-24500000D02*
X1750000Y-24500000D01*
X1750000Y-20500000D01*
X5250000Y-20500000D01*
X5250000Y-24500000D01*
X5250000Y-24500000D01*
G37*
G36*
X96949558Y-1335772D02*
X96949563Y-1335773D01*
X96949606Y-1335778D01*
X97097590Y-1381587D01*
X97233859Y-1455267D01*
X97353222Y-1554013D01*
X97451131Y-1674061D01*
X97523858Y-1810841D01*
X97568633Y-1959142D01*
X97583750Y-2113316D01*
X97583750Y-2886684D01*
X97583673Y-2897766D01*
X97566405Y-3051714D01*
X97519564Y-3199375D01*
X97444934Y-3335127D01*
X97345358Y-3453797D01*
X97224628Y-3550866D01*
X97087344Y-3622636D01*
X96938734Y-3666375D01*
X96938698Y-3666378D01*
X96938689Y-3666381D01*
X96784462Y-3680416D01*
X96630442Y-3664228D01*
X96630437Y-3664227D01*
X96630394Y-3664222D01*
X96482410Y-3618413D01*
X96346141Y-3544733D01*
X96226778Y-3445987D01*
X96128869Y-3325939D01*
X96056142Y-3189159D01*
X96011367Y-3040858D01*
X95996250Y-2886684D01*
X95996250Y-2113316D01*
X95996327Y-2102234D01*
X96013595Y-1948286D01*
X96060436Y-1800625D01*
X96135066Y-1664873D01*
X96234642Y-1546203D01*
X96355372Y-1449134D01*
X96492656Y-1377364D01*
X96641266Y-1333625D01*
X96641302Y-1333622D01*
X96641311Y-1333619D01*
X96795538Y-1319584D01*
X96949558Y-1335772D01*
X96949558Y-1335772D01*
G37*
G36*
X94409558Y-1335772D02*
X94409563Y-1335773D01*
X94409606Y-1335778D01*
X94557590Y-1381587D01*
X94693859Y-1455267D01*
X94813222Y-1554013D01*
X94911131Y-1674061D01*
X94983858Y-1810841D01*
X95028633Y-1959142D01*
X95043750Y-2113316D01*
X95043750Y-2886684D01*
X95043673Y-2897766D01*
X95026405Y-3051714D01*
X94979564Y-3199375D01*
X94904934Y-3335127D01*
X94805358Y-3453797D01*
X94684628Y-3550866D01*
X94547344Y-3622636D01*
X94398734Y-3666375D01*
X94398698Y-3666378D01*
X94398689Y-3666381D01*
X94244462Y-3680416D01*
X94090442Y-3664228D01*
X94090437Y-3664227D01*
X94090394Y-3664222D01*
X93942410Y-3618413D01*
X93806141Y-3544733D01*
X93686778Y-3445987D01*
X93588869Y-3325939D01*
X93516142Y-3189159D01*
X93471367Y-3040858D01*
X93456250Y-2886684D01*
X93456250Y-2113316D01*
X93456327Y-2102234D01*
X93473595Y-1948286D01*
X93520436Y-1800625D01*
X93595066Y-1664873D01*
X93694642Y-1546203D01*
X93815372Y-1449134D01*
X93952656Y-1377364D01*
X94101266Y-1333625D01*
X94101302Y-1333622D01*
X94101311Y-1333619D01*
X94255538Y-1319584D01*
X94409558Y-1335772D01*
X94409558Y-1335772D01*
G37*
G36*
X92503750Y-3674750D02*
X90916250Y-3674750D01*
X90916250Y-1325250D01*
X92503750Y-1325250D01*
X92503750Y-3674750D01*
X92503750Y-3674750D01*
G37*
M02*
